<svg width="36" height="36" viewBox="0 0 36 36" fill="none" xmlns="http://www.w3.org/2000/svg">
<ellipse cx="18" cy="17.9819" rx="18" ry="17.5" fill="#002600"/>
<g clip-path="url(#clip0_27_793)">
<path d="M6.66667 32.8152C6.66667 29.9863 7.86072 27.2732 9.98613 25.2728C12.1115 23.2724 14.9942 22.1486 18 22.1486C21.0058 22.1486 23.8885 23.2724 26.0139 25.2728C28.1393 27.2732 29.3333 29.9863 29.3333 32.8152H26.5C26.5 30.6935 25.6045 28.6587 24.0104 27.1584C22.4164 25.6581 20.2543 24.8152 18 24.8152C15.7457 24.8152 13.5837 25.6581 11.9896 27.1584C10.3955 28.6587 9.50001 30.6935 9.50001 32.8152H6.66667ZM18 20.8152C13.3038 20.8152 9.50001 17.2352 9.50001 12.8152C9.50001 8.39525 13.3038 4.81525 18 4.81525C22.6963 4.81525 26.5 8.39525 26.5 12.8152C26.5 17.2352 22.6963 20.8152 18 20.8152ZM18 18.1486C21.1308 18.1486 23.6667 15.7619 23.6667 12.8152C23.6667 9.86858 21.1308 7.48191 18 7.48191C14.8692 7.48191 12.3333 9.86858 12.3333 12.8152C12.3333 15.7619 14.8692 18.1486 18 18.1486Z" fill="white"/>
</g>
<defs>
<clipPath id="clip0_27_793">
<rect width="34" height="32" fill="white" transform="translate(1 3.48193)"/>
</clipPath>
</defs>
</svg>
